<svg viewBox="0 0 900 1120" xmlns="http://www.w3.org/2000/svg" width="900" height="1120"><defs><linearGradient id="sky" x1="0" y1="0" x2="0" y2="1"><stop offset="0" stop-color="#211730"/><stop offset=".45" stop-color="#6d4258"/><stop offset=".78" stop-color="#d98f52"/><stop offset="1" stop-color="#efb978"/></linearGradient><radialGradient id="sun"><stop offset="0" stop-color="#ffcf95" stop-opacity=".95"/><stop offset=".45" stop-color="#ffcf95" stop-opacity=".55"/><stop offset="1" stop-color="#ffcf95" stop-opacity="0"/></radialGradient><radialGradient id="leak" cx=".88" cy=".08" r=".85"><stop offset="0" stop-color="#ff7d1a" stop-opacity=".6"/><stop offset="1" stop-color="#ff7d1a" stop-opacity="0"/></radialGradient><radialGradient id="vig" cx=".5" cy=".5" r=".72"><stop offset=".45" stop-color="#000" stop-opacity="0"/><stop offset="1" stop-color="#1a0d06" stop-opacity=".5"/></radialGradient><filter id="grain"><feTurbulence type="fractalNoise" baseFrequency=".9" numOctaves="4" stitchTiles="stitch"/><feColorMatrix type="saturate" values="0"/></filter></defs><rect width="900" height="1120" fill="url(#sky)"/><circle cx="244.2" cy="425.6" r="351.0" fill="url(#sun)"/><circle cx="244.2" cy="425.6" r="67.5" fill="#ffcf95" opacity=".9"/><path d="M0,668.1 Q90.0,521.7 180.0,539.4 Q270.0,538.5 360.0,562.4 Q450.0,532.1 540.0,540.2 Q630.0,530.7 720.0,644.4 Q810.0,593.3 900.0,694.4 L900.0,1120.0 L0,1120.0 Z" fill="#2a1b33"/><path d="M0,708.7 Q90.0,660.4 180.0,759.5 Q270.0,637.9 360.0,689.8 Q450.0,681.3 540.0,783.0 Q630.0,721.4 720.0,773.5 Q810.0,740.7 900.0,793.5 L900.0,1120.0 L0,1120.0 Z" fill="#1b1024"/><path d="M0,807.7 Q90.0,768.7 180.0,830.8 Q270.0,742.5 360.0,771.7 Q450.0,742.8 540.0,815.8 Q630.0,792.0 720.0,905.2 Q810.0,813.7 900.0,822.9 L900.0,1120.0 L0,1120.0 Z" fill="#100915"/><rect width="900" height="1120" fill="url(#leak)" style="mix-blend-mode:screen"/><rect width="900" height="1120" fill="url(#vig)"/><rect width="900" height="1120" filter="url(#grain)" opacity=".16" style="mix-blend-mode:overlay"/><text x="54.0" y="1041.6" font-family="DM Mono, Menlo, monospace" font-size="40.5" fill="#ff9a2e" opacity=".92" letter-spacing="1.5" style="text-shadow:0 0 6px #ff6a00">'26 8 17</text></svg>